:SAMPLES-PER-SECOND 30
:FULLY-SPECIFIED
:DEGREES
306
root  51.2797 38.6444 -2.54818 160.299 -77.959 -166.443
RightUpLeg  8.34193 -20.6772 -4.17416
RightLeg  22.5545 -6.42862 -1.98552
RightFoot  -19.3346 0.0793859 3.01062
RightToes  2.32829e-010 0 -3.6325e-017
Spine  12.0006 -1.34441 11.284
Spine1  5.52121 -0.610305 1.41641
HEad  -10.9719 10.991 -4.61783
LeftShoulder1  10.0599 -14.6994 -48.2468
LeftArm  -12.823 13.9815 -25.6483
LeftForeArm  23.7328 -30.2413 -5.27164
LeftHand  -0.244104 0.0205437 5.32207
RightShoulder  7.0243 11.454 40.7751
RightArm  16.2678 9.98386 37.2344
RightForeArm  0.684177 33.6635 7.4573
RightHand  -0.659871 -0.149085 -14.6445
LeftUpLeg  -11.2466 9.83998 12.6281
LeftLeg  -5.13475 23.6917 -6.1393
LeftFoot  21.2495 -0.542397 1.40294
LeftToes  1.42787e-010 7.94111e-011 2.6399e-011
307
root  51.3711 38.6012 -2.65994 158.245 -78.5521 -165.072
RightUpLeg  9.0429 -20.6056 -3.96203
RightLeg  22.7058 -7.21519 -2.22727
RightFoot  -19.7067 0.0742302 2.83985
RightToes  2.32829e-010 0 -3.6325e-017
Spine  11.1115 -1.36301 10.7032
Spine1  5.90112 -0.977332 2.4831
HEad  -11.3808 10.6624 -4.28413
LeftShoulder1  10.0481 -14.6266 -48.3851
LeftArm  -12.4336 14.5997 -25.8557
LeftForeArm  23.0358 -28.6135 -4.93268
LeftHand  -0.244104 0.0205437 5.32207
RightShoulder  6.8612 11.1525 40.6369
RightArm  14.0147 4.92489 36.2167
RightForeArm  1.1874 33.5885 7.40935
RightHand  -0.729505 0.102698 -15.4276
LeftUpLeg  -11.0006 9.94094 12.774
LeftLeg  -4.67887 22.9397 -5.90573
LeftFoot  21.1811 -0.456833 1.11401
LeftToes  1.42787e-010 7.94111e-011 2.6399e-011
308
root  51.4364 38.5649 -2.73016 157.382 -78.8345 -164.784
RightUpLeg  9.50937 -20.7522 -4.01969
RightLeg  23.0379 -7.38453 -2.41189
RightFoot  -19.9496 0.0663907 2.67684
RightToes  2.32829e-010 0 -3.6325e-017
Spine  10.5202 -1.37921 10.3716
Spine1  5.99559 -1.15925 2.98705
HEad  -11.861 10.3708 -4.35658
LeftShoulder1  9.98186 -14.4877 -48.4372
LeftArm  -12.0979 15.2564 -25.9514
LeftForeArm  21.6218 -26.4529 -4.52047
LeftHand  -0.244104 0.0205437 5.32207
RightShoulder  6.66523 10.8431 40.3026
RightArm  12.4746 0.275653 35.4763
RightForeArm  -0.855602 31.1376 6.85264
RightHand  -0.875047 0.72291 -16.6655
LeftUpLeg  -10.701 9.98248 12.8192
LeftLeg  -4.40327 22.5077 -5.80763
LeftFoot  21.2543 -0.524396 1.34054
LeftToes  1.42787e-010 7.94111e-011 2.6399e-011
309
root  51.4686 38.5425 -2.77166 157.398 -78.8906 -165.24
RightUpLeg  9.88706 -21.067 -4.29256
RightLeg  23.2898 -7.1216 -2.44187
RightFoot  -20.1009 0.0605136 2.56739
RightToes  2.32829e-010 0 -3.6325e-017
Spine  9.92879 -1.41213 10.3137
Spine1  6.15907 -1.19779 2.88471
HEad  -12.4429 10.1575 -4.67555
LeftShoulder1  9.88478 -14.3432 -48.3539
LeftArm  -11.6483 15.8788 -25.9999
LeftForeArm  19.4372 -23.7693 -4.0923
LeftHand  -0.244104 0.0205437 5.32207
RightShoulder  6.55012 10.6062 40.2686
RightArm  11.9021 -3.51061 34.4494
RightForeArm  -3.72296 26.1327 5.90126
RightHand  -1.00081 1.47864 -17.0022
LeftUpLeg  -10.3788 9.98569 12.8213
LeftLeg  -4.25416 22.3479 -5.75655
LeftFoot  21.3895 -0.609733 1.62241
LeftToes  1.42787e-010 7.94111e-011 2.6399e-011
310
root  51.4684 38.5353 -2.7991 157.847 -78.7947 -166.031
RightUpLeg  10.2731 -21.1779 -4.59402
RightLeg  23.3309 -6.9006 -2.37673
RightFoot  -20.2317 0.0537304 2.45353
RightToes  2.32829e-010 0 -3.6325e-017
Spine  9.21185 -1.46771 10.3295
Spine1  6.59334 -1.2196 2.57203
HEad  -13.1583 10.1629 -5.18449
LeftShoulder1  9.80384 -14.2466 -48.2174
LeftArm  -11.4217 16.479 -26.0067
LeftForeArm  17.3909 -20.7504 -3.89615
LeftHand  -0.244104 0.0205437 5.32207
RightShoulder  6.47878 10.4506 40.2744
RightArm  8.01786 -6.06985 33.1388
RightForeArm  -2.09719 18.1022 6.11432
RightHand  -0.989945 1.71084 -16.2647
LeftUpLeg  -10.0133 9.98697 12.8368
LeftLeg  -4.1888 22.3342 -5.72708
LeftFoot  21.5161 -0.636797 1.70476
LeftToes  1.42787e-010 7.94111e-011 2.6399e-011
311
root  51.45 38.5374 -2.81235 158.569 -78.563 -167.023
RightUpLeg  10.5717 -20.968 -4.80507
RightLeg  23.3134 -6.80848 -2.34687
RightFoot  -20.2935 0.050371 2.39893
RightToes  2.32829e-010 0 -3.6325e-017
Spine  8.49767 -1.53485 10.2792
Spine1  7.18667 -1.29527 2.40263
HEad  -13.9251 10.483 -5.88741
LeftShoulder1  9.72116 -14.1362 -48.1087
LeftArm  -11.8362 17.0683 -26.021
LeftForeArm  16.5615 -17.8154 -4.06399
LeftHand  -0.244104 0.0205437 5.32207
RightShoulder  6.38702 10.3617 39.9301
RightArm  -4.69677 -7.69796 31.5783
RightForeArm  8.58893 7.90105 7.79774
RightHand  -0.831043 0.870578 -15.4934
LeftUpLeg  -9.6148 10.0096 12.8747
LeftLeg  -4.20723 22.4464 -5.7666
LeftFoot  21.5949 -0.65876 1.77295
LeftToes  1.42787e-010 7.94111e-011 2.6399e-011
312
root  51.4234 38.5462 -2.80405 159.402 -78.2145 -168.081
RightUpLeg  10.7802 -20.5982 -4.9592
RightLeg  23.2957 -6.72338 -2.35513
RightFoot  -20.2394 0.0551151 2.47003
RightToes  2.32829e-010 0 -3.6325e-017
Spine  7.99632 -1.56656 10.2238
Spine1  7.74664 -1.34758 2.34289
HEad  -14.7054 11.0157 -6.66446
LeftShoulder1  9.61952 -13.9756 -48.0419
LeftArm  -12.356 17.6347 -26.1339
LeftForeArm  16.606 -15.4056 -4.27554
LeftHand  -0.244104 0.0205437 5.32207
RightShoulder  6.28105 10.3139 39.3528
RightArm  -10.3729 -9.70462 30.3013
RightForeArm  10.5479 0.975512 5.61837
RightHand  -0.707111 -0.26218 -16.0196
LeftUpLeg  -9.19646 10.0174 12.9083
LeftLeg  -4.31241 22.7345 -5.84784
LeftFoot  21.6597 -0.731871 2.01451
LeftToes  1.42787e-010 7.94111e-011 2.6399e-011
313
root  51.3835 38.5641 -2.77479 159.944 -77.8913 -168.856
RightUpLeg  11.1168 -20.2379 -5.16251
RightLeg  23.1056 -6.69456 -2.27529
RightFoot  -20.1219 0.0583578 2.53482
RightToes  2.32829e-010 0 -3.6325e-017
Spine  7.82062 -1.55488 10.2547
Spine1  8.13798 -1.29881 2.18864
HEad  -15.4652 11.4871 -7.25201
LeftShoulder1  9.55127 -13.8683 -47.995
LeftArm  -12.7117 18.2509 -26.2906
LeftForeArm  17.0141 -13.6675 -4.40813
LeftHand  -0.244104 0.0205437 5.32207
RightShoulder  6.14461 10.2004 38.7615
RightArm  -13.7899 -13.0331 28.7134
RightForeArm  7.88325 -1.05983 4.15015
RightHand  -0.810015 -0.227117 -18.1043
LeftUpLeg  -8.75897 9.95059 12.8975
LeftLeg  -4.45502 23.0387 -5.86979
LeftFoot  21.7606 -0.830756 2.33841
LeftToes  1.42787e-010 7.94111e-011 2.6399e-011
314
root  51.3255 38.5884 -2.73173 160.05 -77.7972 -169.189
RightUpLeg  11.6476 -19.9356 -5.44865
RightLeg  22.6922 -6.83558 -2.05861
RightFoot  -20.0001 0.0563365 2.53313
RightToes  2.32829e-010 0 -3.6325e-017
Spine  7.91092 -1.59864 10.2765
Spine1  8.27157 -1.25753 1.9344
HEad  -16.1111 11.8137 -7.53094
LeftShoulder1  9.55088 -13.8914 -47.9285
LeftArm  -12.926 19.071 -26.3942
LeftForeArm  17.3578 -12.6085 -4.44594
LeftHand  -0.244104 0.0205437 5.32207
RightShoulder  5.89997 9.8936 37.9926
RightArm  -14.3445 -17.3385 27.1714
RightForeArm  1.00567 0.938803 4.39998
RightHand  -1.12575 1.04836 -20.3028
LeftUpLeg  -8.39116 9.81773 12.7941
LeftLeg  -4.54535 23.1154 -5.82799
LeftFoot  21.8321 -0.91644 2.61912
LeftToes  1.42787e-010 7.94111e-011 2.6399e-011
315
root  51.2566 38.6118 -2.67758 160.137 -77.9426 -169.393
RightUpLeg  12.11 -19.614 -5.74184
RightLeg  22.2607 -7.14889 -1.82125
RightFoot  -19.8687 0.0606855 2.61897
RightToes  2.32829e-010 0 -3.6325e-017
Spine  8.07815 -1.79398 10.1146
Spine1  8.21193 -1.39805 1.74481
HEad  -16.6063 12.1775 -7.70438
LeftShoulder1  9.55195 -13.9437 -47.7883
LeftArm  -13.1719 20.1064 -26.5253
LeftForeArm  17.3908 -12.2261 -4.38917
LeftHand  -0.244104 0.0205437 5.32207
RightShoulder  5.55219 9.4431 36.878
RightArm  -12.756 -21.1821 26.1019
RightForeArm  -5.91772 4.10646 5.61416
RightHand  -1.32575 1.95321 -20.9678
LeftUpLeg  -8.22579 9.69605 12.5893
LeftLeg  -4.53338 23.0574 -5.83385
LeftFoot  21.7521 -0.980171 2.84194
LeftToes  1.42787e-010 7.94111e-011 2.6399e-011
316
root  51.1824 38.6353 -2.60921 160.658 -78.0677 -169.879
RightUpLeg  12.3137 -19.1919 -5.98449
RightLeg  21.9351 -7.53237 -1.65693
RightFoot  -19.7082 0.0715912 2.80341
RightToes  2.32829e-010 0 -3.6325e-017
Spine  8.16022 -2.081 9.81687
Spine1  8.21823 -1.67961 1.64506
HEad  -17.0319 12.7188 -8.05884
LeftShoulder1  9.48178 -13.8904 -47.579
LeftArm  -13.5841 21.0906 -26.8376
LeftForeArm  17.1411 -12.3501 -4.2623
LeftHand  -0.244104 0.0205437 5.32207
RightShoulder  5.24497 9.08412 35.6944
RightArm  -10.5755 -23.5378 25.456
RightForeArm  -9.0087 6.25435 6.65978
RightHand  -1.23451 1.67343 -20.2923
LeftUpLeg  -8.23282 9.63827 12.359
LeftLeg  -4.44211 23.1567 -5.92525
LeftFoot  21.5353 -1.00289 2.94328
LeftToes  1.42787e-010 7.94111e-011 2.6399e-011
